<svg width="50" height="54" viewBox="0 0 50 54" fill="none" xmlns="http://www.w3.org/2000/svg">
<path d="M14.7555 22.1904C15.0901 22.2132 15.4732 22.1693 15.8552 22.1404C16.2567 22.11 16.6558 22.0339 17.0363 21.8967C17.2711 21.812 17.4885 21.6743 17.5813 21.4286C17.7519 20.9768 17.7899 20.5013 17.6562 20.0404C17.4481 19.3235 16.923 18.84 16.3541 18.3972C15.8593 18.012 15.2992 17.8573 14.6881 17.9606C13.6339 18.1387 12.5606 19.0728 12.4313 20.1715C12.3743 20.6548 12.347 21.1166 12.6259 21.5523C12.8135 21.8457 13.0091 22.0912 13.3955 22.1223C13.8318 22.1575 14.2671 22.1958 14.7555 22.1904ZM34.6644 22.197C34.9015 22.2139 35.2777 22.1666 35.6539 22.1422C35.9874 22.1207 36.3032 22.0445 36.5063 21.7274C36.7913 21.2824 36.9087 20.7995 36.8365 20.2812C36.7102 19.373 36.1801 18.7367 35.4126 18.2874C34.7993 17.9284 34.1442 17.8147 33.456 18.0628C33.0555 18.2073 32.733 18.4758 32.43 18.7603C31.8937 19.2639 31.4837 19.8412 31.4232 20.6109C31.3675 21.3178 31.6543 21.7441 32.3239 21.9417C33.0433 22.1539 33.7818 22.1808 34.6644 22.197ZM38.2922 25.267C38.291 24.8211 38.2974 24.3723 38.1571 23.9452C37.9797 23.4049 38.0258 23.3978 37.494 23.4446C36.7655 23.5088 36.1133 23.8163 35.4702 24.1375C34.557 24.5936 33.6916 25.1321 32.842 25.6948C32.1545 26.1502 31.441 26.5736 30.8465 27.1547C30.3766 27.614 29.9567 28.1087 29.8507 28.7931C29.8179 29.0048 29.8881 29.1291 30.1161 29.1841C30.3312 29.236 30.5472 29.2793 30.7729 29.2789C31.6198 29.2774 32.4465 29.1269 33.2628 28.9277C34.3135 28.6713 35.334 28.3221 36.298 27.8227C36.9385 27.4907 37.5435 27.1099 38.0337 26.5689C38.1624 26.4267 38.2575 26.2819 38.2545 26.0743C38.2508 25.8054 38.2782 25.5361 38.2922 25.267ZM11.4576 25.1978C11.4676 25.3877 11.5033 25.7111 11.4959 26.0334C11.489 26.3347 11.6357 26.536 11.835 26.7281C12.6611 27.5245 13.6748 27.9934 14.729 28.3908C15.4141 28.6492 16.1161 28.8497 16.8317 29.0074C17.5491 29.1656 18.2714 29.2802 19.0063 29.3006C19.2688 29.3078 19.5297 29.2787 19.7818 29.1936C19.9957 29.1215 20.0629 29.0178 20.0283 28.8051C19.998 28.6185 19.9414 28.4411 19.8565 28.272C19.5281 27.6184 19.0205 27.1184 18.4326 26.7119C16.9146 25.6625 15.3743 24.645 13.6715 23.909C13.1537 23.6851 12.6217 23.5018 12.0408 23.5086C11.8436 23.5109 11.7578 23.5918 11.6866 23.7596C11.5086 24.1788 11.4951 24.622 11.4576 25.1978ZM6.10378 3.38732C5.97886 3.37017 5.95249 3.40627 5.84181 3.6548C5.42786 4.58366 5.30915 5.57257 5.25812 6.57242C5.22654 7.19039 5.27858 7.80726 5.33261 8.42373C5.37011 8.85071 5.42084 9.27569 5.4854 9.69867C5.55709 10.1678 5.6408 10.635 5.73053 11.1016C5.84953 11.7195 5.98437 12.3332 6.13746 12.9423C6.32835 13.702 6.53958 14.4568 6.75704 15.2094C6.93709 15.833 7.13841 16.4505 7.3321 17.0701C7.34553 17.1128 7.36157 17.1655 7.42173 17.1655C7.47095 17.1655 7.48288 17.1195 7.50394 17.0863C7.9236 16.4223 8.34558 15.7606 8.82058 15.1328C9.41249 14.3505 10.0213 13.5836 10.7041 12.8783C11.256 12.3079 11.816 11.7451 12.4273 11.2376C12.995 10.7662 13.5752 10.3098 14.187 9.89627C14.2995 9.82018 14.2927 9.76233 14.2092 9.67401C13.7982 9.2394 13.4017 8.79046 12.9781 8.36869C12.2639 7.65748 11.5388 6.9581 10.7672 6.30684C10.208 5.83474 9.64147 5.37347 9.04165 4.9552C8.41495 4.5183 7.76079 4.12259 7.07625 3.78463C6.75934 3.62823 6.43111 3.48447 6.10378 3.38732ZM36.9454 11.4661C37.0429 11.6352 37.2225 11.7176 37.3535 11.8521C37.935 12.4495 38.5434 13.0196 39.085 13.6572C39.5154 14.1639 39.9255 14.6849 40.3204 15.2187C40.736 15.7802 41.1278 16.3585 41.5014 16.9487C41.5565 17.0357 41.5692 17.1715 41.6842 17.1799C41.7154 17.1821 41.7682 17.0158 41.7958 16.9222C42.0236 16.1522 42.2723 15.3885 42.4929 14.616C42.7433 13.7394 42.9753 12.8584 43.1694 11.969C43.3818 10.9957 43.5653 10.0168 43.677 9.02325C43.7513 8.36227 43.7933 7.70099 43.8187 7.03911C43.8412 6.44981 43.7675 5.86101 43.7035 5.27431C43.6908 5.23622 43.6707 5.19902 43.6663 5.16003C43.6033 4.60802 43.4323 4.0874 43.2025 3.58542C43.0892 3.33769 43.0636 3.33519 42.8021 3.43875C41.8951 3.79837 41.0383 4.25693 40.2365 4.80873C38.9786 5.67443 37.8313 6.67698 36.7327 7.73497C36.0928 8.35104 35.4825 8.99608 34.8874 9.65566C34.7967 9.75611 34.7747 9.81106 34.9049 9.9063C35.3921 10.2626 35.8821 10.6148 36.3514 10.996C36.5466 11.1546 36.7099 11.3576 36.9454 11.4661ZM36.6618 4.74628C37.2239 4.2072 37.7684 3.64959 38.3597 3.14109C39.4334 2.21764 40.5784 1.40117 41.8754 0.818382C42.7192 0.43932 43.5942 0.163219 44.5245 0.0911331C44.6579 0.0808067 44.7384 0.10537 44.8175 0.232594C45.1583 0.780586 45.3746 1.3754 45.54 1.99437C45.8807 3.26982 45.9313 4.57223 45.8811 5.87905C45.8401 6.94637 45.733 8.00937 45.5789 9.06787C45.4569 9.9056 45.3044 10.7376 45.1535 11.57C45.096 11.8864 45.0083 12.1975 44.9665 12.5174C44.9475 12.5815 44.9241 12.6448 44.9101 12.71C44.6778 13.7936 44.4035 14.867 44.1217 15.9384C43.7901 17.1996 43.4406 18.4565 43.0317 19.6942C42.9118 20.0571 42.9918 20.3364 43.1324 20.6489C43.5353 21.5438 44.0471 22.3867 44.3901 23.3101C44.6339 23.9661 44.8749 24.6229 45.0754 25.2934C45.4029 26.3888 45.6503 27.5025 45.8303 28.6317C45.9403 29.3221 46.0261 30.0156 46.0876 30.7114C46.1409 31.3141 46.1792 31.919 46.1968 32.5236C46.2037 32.7556 46.2983 32.9879 46.2119 33.2216C45.8994 33.1742 45.5882 33.1146 45.2742 33.0816C44.2478 32.974 43.2237 32.9245 42.1889 33.0288C40.9945 33.1492 39.8437 33.4196 38.7393 33.8771C37.3027 34.4721 36.0348 35.3329 34.9072 36.4007C34.6018 36.69 34.3081 36.9917 33.9977 37.2989C33.8779 36.9394 33.7643 36.5964 33.6491 36.2537C33.3186 35.2697 32.8212 34.3612 32.3709 33.4313C32.2351 33.1511 32.0652 32.8922 31.8607 32.6566C31.1409 31.8273 30.3304 31.1009 29.3944 30.5236C27.951 29.6336 26.3622 29.2475 24.6818 29.2433C23.8107 29.241 22.9573 29.4173 22.1247 29.6776C20.4802 30.1918 19.1581 31.1737 18.0317 32.4583C17.6207 32.927 17.3479 33.4724 17.0316 33.9956C16.6043 34.7023 16.2119 35.4275 15.8854 36.187C15.7275 36.5546 15.5686 36.9217 15.4014 37.3094C15.3224 37.2222 15.2596 37.153 15.1969 37.0837C13.2596 34.9403 10.9439 33.4703 8.0399 33.0241C6.95935 32.8581 5.88011 32.8487 4.79565 32.9363C4.25888 32.9796 3.72884 33.0728 3.19849 33.1629C3.20721 32.5573 3.25824 31.9547 3.30656 31.351C3.37002 30.5594 3.48271 29.7749 3.61555 28.994C3.72813 28.3327 3.8723 27.6764 4.0293 27.0228C4.28084 25.9758 4.5806 24.9443 4.94222 23.9305C5.01069 23.7383 5.11456 23.5457 4.9332 23.3564C4.92728 23.3503 4.94202 23.3245 4.95255 23.2903C5.07095 23.4467 5.131 23.4198 5.19276 23.252C5.55608 22.266 5.97966 21.305 6.41868 20.3508C6.46249 20.2553 6.49407 20.1633 6.45256 20.0605C6.04773 19.0561 5.71158 18.0283 5.41512 16.9875C5.18895 16.1937 4.97801 15.3958 4.80597 14.5879C4.68156 14.0037 4.54882 13.4212 4.41989 12.838C4.38861 12.3543 4.27071 11.8838 4.19983 11.406C4.09045 10.6685 3.9896 9.93026 3.9126 9.18887C3.8334 8.42633 3.77866 7.66249 3.74077 6.89624C3.70377 6.14864 3.69465 5.40164 3.72242 4.65534C3.75681 3.7359 3.81856 2.81586 4.05196 1.92039C4.17868 1.43415 4.3441 0.959042 4.61479 0.528645C4.92588 0.033886 5.17792 -0.0593491 5.75509 0.0302811C6.76766 0.18758 7.65953 0.627399 8.50629 1.17199C9.63576 1.89843 10.6401 2.77967 11.5924 3.72227C11.9742 4.10023 12.3573 4.47679 12.7399 4.85395C12.7634 4.88633 12.7842 4.92132 12.811 4.9507C13.3113 5.49668 13.8193 6.03575 14.3115 6.58876C15.0095 7.37285 15.7018 8.16226 16.3827 8.96109C16.5208 9.1231 16.6324 9.14867 16.8213 9.07067C18.0189 8.57651 19.2605 8.22783 20.5323 7.98862C21.6322 7.78189 22.747 7.71021 23.8629 7.67131C25.461 7.61557 27.0535 7.68946 28.6325 7.95343C30.0474 8.18993 31.4322 8.54604 32.7745 9.05714C33.077 9.17223 33.0743 9.17724 33.2703 8.90094C33.862 8.06632 34.4964 7.26498 35.1456 6.47457C35.6325 5.88186 36.1505 5.31713 36.6618 4.74628Z" fill="#F4A817"/>
<path d="M46.2118 33.2217C46.2982 32.9879 46.2035 32.7556 46.1968 32.5236C46.1792 31.9189 46.1408 31.3142 46.0875 30.7114C46.026 30.0157 45.9402 29.3221 45.8302 28.6316C45.6502 27.5025 45.4028 26.3887 45.0753 25.2934C44.8747 24.6229 44.6338 23.9661 44.39 23.3101C44.0469 22.3868 43.5351 21.5438 43.1323 20.6488C42.9918 20.3364 42.9118 20.0571 43.0317 19.6942C43.4406 18.4565 43.79 17.1997 44.1216 15.9384C44.4033 14.8669 44.6777 13.7936 44.9099 12.7099C44.924 12.6448 44.9473 12.5815 44.9664 12.5173C45.6053 13.4329 46.1576 14.3989 46.6658 15.3921C47.3222 16.6748 47.8652 18.0045 48.304 19.3751C48.6812 20.5536 48.9714 21.7546 49.1852 22.9757C49.4921 24.7275 49.6286 26.4911 49.6005 28.267C49.579 29.6159 49.4639 30.9594 49.2411 32.2902C48.678 35.6525 47.5471 38.8127 45.7974 41.741C44.0183 44.7183 41.7451 47.2544 38.9467 49.3144C37.3971 50.4551 35.7379 51.397 33.9656 52.1463C32.9291 52.5846 31.8686 52.9497 30.7819 53.2347C29.6021 53.544 28.4037 53.7568 27.1886 53.8796C25.7011 54.0301 24.2122 54.038 22.7252 53.9115C21.4835 53.806 20.2579 53.5911 19.0462 53.2879C17.3882 52.873 15.7948 52.2869 14.269 51.5251C10.6286 49.7073 7.62692 47.128 5.21248 43.859C3.94124 42.1379 2.90561 40.2846 2.08492 38.3083C1.61503 37.177 1.21952 36.021 0.907128 34.8381C0.582301 33.6082 0.348907 32.3597 0.197021 31.0953C-0.0249437 29.2477 -0.0554228 27.3968 0.0857362 25.5437C0.200328 24.0381 0.441041 22.5499 0.810581 21.0856C1.55136 18.1499 2.73307 15.4043 4.39299 12.8683C4.40031 12.8572 4.41074 12.8481 4.41966 12.838C4.54879 13.4212 4.68143 14.0036 4.80584 14.5879C4.97798 15.3957 5.18882 16.1936 5.41499 16.9874C5.71144 18.0283 6.0476 19.0561 6.45253 20.0604C6.49393 20.1633 6.46246 20.2553 6.41854 20.3507C5.97953 21.305 5.55595 22.266 5.19272 23.2521C5.13087 23.4198 5.07081 23.4467 4.95241 23.2903C4.94189 23.3244 4.92725 23.3503 4.93306 23.3563C5.11453 23.5456 5.01066 23.7383 4.94209 23.9305C4.58047 24.9444 4.28071 25.9758 4.02917 27.0228C3.87217 27.6764 3.728 28.3327 3.61551 28.9941C3.48258 29.7749 3.36989 30.5594 3.30643 31.3511C3.2581 31.9546 3.20708 32.5573 3.19835 33.163C3.14963 33.9147 3.2188 34.6545 3.41621 35.3824C3.70835 36.4597 4.18005 37.4566 4.76614 38.4019C5.94554 40.304 7.46531 41.9078 9.14698 43.3656C11.4838 45.3914 14.064 47.0413 16.8734 48.3347C17.4261 48.5893 17.974 48.8493 18.5468 49.0615C18.9685 49.2177 19.3913 49.364 19.8151 49.5105C20.0794 49.602 20.3475 49.6983 20.6159 49.7811C21.6107 50.0876 22.6295 50.2938 23.6637 50.3942C24.8409 50.5084 26.0152 50.4396 27.1837 50.2429C28.2295 50.0667 29.2551 49.8119 30.2626 49.4873C31.3013 49.1526 32.3144 48.7491 33.3063 48.2916C34.709 47.6448 36.0542 46.8964 37.3425 46.0453C38.5592 45.2415 39.7126 44.3554 40.7848 43.3667C41.2425 42.9446 41.7009 42.5215 42.0969 42.0376C42.1486 42.0273 42.1714 41.9881 42.1895 41.9444L42.2022 41.9436L42.207 41.9319C42.2275 41.9146 42.2508 41.8997 42.2684 41.8798C43.0013 41.0551 43.6879 40.1969 44.2504 39.2428C44.5626 38.7134 44.8954 38.1956 45.1557 37.6378C45.6305 36.6205 45.9661 35.5594 46.1323 34.4462C46.1931 34.0396 46.2269 33.6326 46.2118 33.2217Z" fill="#F00500"/>
<path d="M36.6618 4.74623C36.1504 5.31708 35.6325 5.88182 35.1455 6.47453C34.4964 7.26494 33.862 8.06627 33.2703 8.9009C33.0743 9.1772 33.077 9.17219 32.7745 9.05709C31.4321 8.54599 30.0474 8.18989 28.6325 7.95339C27.0534 7.68942 25.4609 7.61553 23.8629 7.67127C22.747 7.71017 21.6322 7.78185 20.5323 7.98858C19.2605 8.22779 18.0189 8.57647 16.8213 9.07063C16.6323 9.14863 16.5208 9.12306 16.3827 8.96105C15.7018 8.16222 15.0095 7.37281 14.3115 6.58872C13.8192 6.03571 13.3113 5.49664 12.811 4.95065C12.7842 4.92128 12.7634 4.88629 12.7397 4.854C14.1988 3.99552 15.7298 3.29243 17.3355 2.75848C18.6782 2.31194 20.0511 1.99193 21.4545 1.79011C23.2454 1.53256 25.0397 1.49406 26.8389 1.63843C28.075 1.73768 29.2945 1.94802 30.4996 2.24708C32.6272 2.77502 34.6357 3.59601 36.5442 4.66873C36.585 4.69169 36.6227 4.72027 36.6618 4.74623Z" fill="#F00500"/>
<path d="M41.2552 42.7409L41.2617 42.731L41.2513 42.7298L41.2552 42.7409ZM41.3773 42.6193L41.3834 42.61L41.3734 42.6088L41.3773 42.6193ZM41.5796 42.4386L41.5722 42.4504L41.5845 42.4516L41.5796 42.4386ZM41.2083 42.8054C41.2027 42.8035 41.1963 42.7989 41.1917 42.8003C41.172 42.8059 41.1711 42.8154 41.1894 42.8239C41.1937 42.8259 41.2021 42.8231 41.2064 42.8198C41.2091 42.8177 41.2078 42.8104 41.2083 42.8054ZM27.8767 49.9664H27.6919C27.7629 50.0105 27.8171 49.9956 27.8767 49.9664ZM27.2724 50.0549C27.4181 50.0997 27.5122 50.0649 27.6209 50.0105C27.4952 49.9688 27.4071 50.0384 27.2724 50.0549ZM25.1469 42.3522V42.3452C24.5739 42.3452 24.001 42.3454 23.4281 42.3452C23.0839 42.345 23.0889 42.3446 23.1014 42.6907C23.1047 42.7814 23.1481 42.8225 23.2114 42.864C23.3807 42.9752 23.573 43.0359 23.7567 43.1156C23.8849 43.1712 23.954 43.1591 24.0054 43.0066C24.1058 42.7088 24.1165 42.719 24.4313 42.7394C24.5346 42.7461 24.5901 42.7929 24.6365 42.8701C24.7433 43.0476 24.8482 43.2261 24.9557 43.4032C25.1224 43.678 25.3908 43.6945 25.6005 43.4446C25.691 43.3368 25.7822 43.2298 25.8728 43.1222C26.1733 42.7658 26.1732 42.7658 26.5296 43.07C26.5786 43.1119 26.6133 43.1757 26.6982 43.1556C26.9898 43.0862 27.2069 42.8075 27.2156 42.5205C27.2204 42.3668 27.1579 42.3484 27.0277 42.3496C26.4008 42.3554 25.7738 42.3522 25.1469 42.3522ZM30.9945 40.6062C30.4192 40.6062 29.8535 40.6071 29.2876 40.6053C29.2049 40.6051 29.1614 40.6562 29.1375 40.7179C29.0798 40.867 28.9767 40.8977 28.8245 40.8934C28.3798 40.8811 27.9345 40.8877 27.4894 40.8848C27.2609 40.8833 26.9882 40.9532 26.8159 40.8527C26.6368 40.7481 26.5404 40.4844 26.435 40.2765C26.3611 40.1308 26.2747 40.0575 26.1121 40.0852C26.0098 40.1026 25.9733 40.0652 25.9745 39.9555C25.9802 39.4497 25.9789 38.9439 25.9751 38.4381C25.9745 38.3514 25.997 38.3087 26.0844 38.2799C26.4765 38.1505 26.8306 37.9459 27.1577 37.6977C27.7991 37.2109 28.2473 36.5944 28.3968 35.7876C28.4996 35.2333 28.4467 34.6717 28.4654 34.1137C28.4882 33.4413 27.8074 32.7531 27.1351 32.7527C25.8875 32.7519 24.6398 32.752 23.3921 32.7526C22.6319 32.753 22.1301 33.2558 22.1295 34.0164C22.1293 34.3738 22.1476 34.7322 22.1262 35.0884C22.0825 35.8205 22.3837 36.4039 22.8736 36.9106C23.4666 37.5237 24.1963 37.929 24.9697 38.2642C25.0448 38.2967 25.117 38.3092 25.1158 38.4217C25.1107 38.934 25.113 39.4464 25.1151 39.9588C25.1154 40.0385 25.0981 40.1009 25.0052 40.078C24.7998 40.0276 24.7256 40.1634 24.6461 40.3084C24.5563 40.4724 24.4519 40.6285 24.361 40.7921C24.3197 40.8661 24.2696 40.8921 24.1847 40.892C23.3889 40.8903 22.5932 40.8934 21.7982 40.8502C21.7345 40.8467 21.6744 40.8501 21.6729 40.7625C21.6708 40.634 21.586 40.6181 21.4828 40.6176C20.9299 40.6154 20.3769 40.6101 19.8239 40.6085C19.7839 40.6084 19.7201 40.579 19.709 40.6497C19.6987 40.7146 19.6861 40.7847 19.7435 40.8398C19.8409 40.9328 19.9317 41.034 20.0365 41.1176C20.167 41.2219 20.2196 41.3462 20.231 41.5141C20.2468 41.7473 20.2876 41.9791 20.3333 42.2104C20.3711 42.4015 20.4289 42.459 20.6193 42.4005C20.7446 42.3621 20.8868 42.3445 20.9085 42.5511C20.9382 42.8328 21.0305 43.101 21.1206 43.3671C21.2421 43.7256 21.3825 44.0776 21.6072 44.3794C21.8675 44.1132 21.8921 43.8005 21.8803 43.4584C21.8584 42.8263 21.874 42.1929 21.874 41.5561C21.9652 41.5666 22.0665 41.5706 22.1646 41.5908C23.0051 41.7633 23.8583 41.8256 24.7123 41.8581C26.0899 41.9104 27.4581 41.7935 28.8154 41.5564C28.9688 41.5296 28.9941 41.5626 28.991 41.7096C28.9775 42.3567 28.9803 43.0043 28.9699 43.6516C28.9651 43.9506 29.1741 44.1342 29.3103 44.3907C29.5307 43.8168 29.7374 43.2802 29.9431 42.7432C30.0612 42.4347 30.0606 42.4316 30.3868 42.4328C30.4798 42.4332 30.5552 42.4329 30.5821 42.3197C30.7165 41.7534 30.8542 41.1878 30.9945 40.6062ZM41.9255 42.1071C41.9363 42.0938 41.9472 42.0805 41.958 42.0672C41.9508 42.062 41.9435 42.0567 41.9363 42.0515C41.9307 42.068 41.925 42.0846 41.9195 42.1014C41.9072 42.1158 41.8948 42.1303 41.8824 42.1447C41.8257 42.1419 41.8002 42.1705 41.8013 42.2256C41.7846 42.2298 41.768 42.234 41.7513 42.2382C41.7559 42.2453 41.7605 42.2523 41.7651 42.2593C41.7775 42.2484 41.7898 42.2373 41.802 42.2264C41.8418 42.2121 41.8688 42.1849 41.8831 42.1452C41.8973 42.1325 41.9113 42.1198 41.9255 42.1071ZM41.6831 42.3506C41.6956 42.3432 41.7205 42.3408 41.6958 42.3186C41.6894 42.3272 41.683 42.3357 41.6768 42.3443C41.6711 42.3518 41.6653 42.3592 41.6596 42.3667C41.6674 42.3612 41.6752 42.3559 41.6831 42.3506ZM41.4824 42.5548C41.4901 42.5471 41.5053 42.5337 41.5045 42.5327C41.4856 42.5085 41.4789 42.5289 41.4707 42.5432C41.4661 42.5519 41.4614 42.5607 41.4567 42.5693C41.4653 42.5645 41.4738 42.5597 41.4824 42.5548ZM42.0969 42.0376C41.7009 42.5215 41.2425 42.9446 40.7849 43.3667C39.7126 44.3554 38.5592 45.2416 37.3425 46.0453C36.0542 46.8964 34.709 47.6448 33.3063 48.2916C32.3144 48.7491 31.3013 49.1526 30.2626 49.4874C29.2551 49.8119 28.2295 50.0667 27.1837 50.2429C26.0152 50.4396 24.8409 50.5084 23.6637 50.3942C22.6295 50.2939 21.6107 50.0876 20.616 49.7811C20.3475 49.6984 20.0794 49.602 19.8151 49.5105C19.3913 49.364 18.9685 49.2177 18.5468 49.0615C17.974 48.8494 17.4261 48.5893 16.8733 48.3347C14.064 47.0413 11.4838 45.3914 9.14689 43.3656C7.46531 41.9078 5.94555 40.304 4.76615 38.4019C4.17996 37.4566 3.70836 36.4597 3.41622 35.3824C3.21881 34.6545 3.14964 33.9147 3.19836 33.163C3.72871 33.0728 4.25876 32.9796 4.79552 32.9363C5.87998 32.8488 6.95923 32.858 8.03978 33.0241C10.9438 33.4703 13.2594 34.9402 15.1968 37.0836C15.2594 37.153 15.3223 37.2222 15.4013 37.3094C15.5685 36.9217 15.7273 36.5545 15.8853 36.187C16.2119 35.4275 16.6043 34.7023 17.0314 33.9956C17.3477 33.4724 17.6205 32.927 18.0316 32.4583C19.158 31.1736 20.4801 30.1918 22.1246 29.6776C22.9572 29.4172 23.8107 29.241 24.6817 29.2432C26.3621 29.2475 27.951 29.6336 29.3943 30.5236C30.3304 31.1009 31.1407 31.8273 31.8606 32.6565C32.0651 32.8921 32.235 33.151 32.3708 33.4313C32.8211 34.3611 33.3185 35.2697 33.6491 36.2536C33.7642 36.5963 33.8778 36.9395 33.9977 37.2989C34.3081 36.9917 34.6017 36.69 34.9071 36.4007C36.0347 35.3328 37.3026 34.4721 38.7391 33.8771C39.8436 33.4196 40.9944 33.1492 42.1888 33.0288C43.2236 32.9246 44.2477 32.974 45.2741 33.0816C45.5881 33.1145 45.8993 33.1742 46.2118 33.2216C46.2269 33.6327 46.1931 34.0396 46.1323 34.4463C45.9661 35.5595 45.6305 36.6205 45.1557 37.6378C44.8954 38.1956 44.5626 38.7134 44.2504 39.2428C43.6878 40.1969 43.0012 41.0551 42.2684 41.8798C42.2508 41.8997 42.2275 41.9146 42.207 41.9319C42.1736 41.8479 42.2821 41.8021 42.2715 41.7067C42.1884 41.7834 42.0937 41.8287 42.0847 41.9433L42.086 41.942C42.0633 41.9516 42.0246 41.9573 42.0211 41.9717C42.0091 42.0213 42.058 42.0119 42.0849 42.0234L42.0969 42.0376Z" fill="#FFFEFE"/>
<path d="M6.10378 3.38723C6.43121 3.48448 6.75934 3.62825 7.07625 3.78465C7.76089 4.1225 8.41495 4.51821 9.04165 4.95512C9.64157 5.37339 10.208 5.83476 10.7673 6.30686C11.5388 6.95802 12.2639 7.65749 12.9782 8.3686C13.4017 8.79048 13.7982 9.23932 14.2093 9.67402C14.2927 9.76225 14.2995 9.82019 14.187 9.89619C13.5752 10.3098 12.995 10.7661 12.4273 11.2375C11.8161 11.7451 11.256 12.3079 10.7041 12.8782C10.0214 13.5836 9.41249 14.3504 8.82058 15.1327C8.34558 15.7606 7.9236 16.4222 7.50394 17.0863C7.48298 17.1195 7.47095 17.1654 7.42173 17.1654C7.36157 17.1654 7.34553 17.1128 7.3322 17.0701C7.13841 16.4505 6.93719 15.833 6.75704 15.2094C6.53968 14.4568 6.32835 13.7019 6.13746 12.9422C5.98437 12.3332 5.84953 11.7194 5.73063 11.1017C5.6408 10.6351 5.55708 10.1678 5.4854 9.69859C5.42084 9.27571 5.37011 8.85063 5.33261 8.42364C5.27858 7.80728 5.22654 7.19041 5.25812 6.57234C5.30915 5.57259 5.42786 4.58368 5.84181 3.65471C5.95259 3.40628 5.97886 3.37009 6.10378 3.38723Z" fill="#F28F1F"/>
<path d="M43.7034 5.27424C43.7674 5.86093 43.8411 6.44973 43.8186 7.03903C43.7932 7.70091 43.7512 8.36219 43.6769 9.02317C43.5652 10.0167 43.3817 10.9956 43.1693 11.969C42.9752 12.8583 42.7432 13.7394 42.4928 14.6159C42.2722 15.3886 42.0235 16.1521 41.7957 16.9222C41.7681 17.0157 41.7153 17.1821 41.6841 17.1798C41.5691 17.1714 41.5564 17.0357 41.5013 16.9487C41.1277 16.3584 40.736 15.7803 40.3203 15.2186C39.9254 14.6849 39.5153 14.1639 39.0849 13.6572C38.5433 13.0195 37.9349 12.4495 37.3533 11.8522C37.2224 11.7176 37.0428 11.6352 36.9453 11.466C36.9815 11.4182 37.0273 11.3749 37.0525 11.3217C37.3074 10.7827 37.5962 10.2622 37.9036 9.75162C38.3684 8.97996 38.8833 8.24269 39.4871 7.57439C40.1206 6.873 40.8362 6.26636 41.6879 5.83777C42.3225 5.51846 42.9859 5.2988 43.7034 5.27424Z" fill="#F28B20"/>
<path d="M11.4575 25.1977C11.495 24.6221 11.5084 24.1788 11.6864 23.7597C11.7577 23.5918 11.8435 23.5109 12.0407 23.5085C12.6216 23.5017 13.1535 23.6851 13.6714 23.909C15.3742 24.6449 16.9144 25.6624 18.4325 26.7119C19.0204 27.1183 19.5279 27.6184 19.8563 28.272C19.9413 28.4411 19.9978 28.6185 20.0282 28.8051C20.0628 29.0178 19.9955 29.1214 19.7817 29.1936C19.5295 29.2787 19.2686 29.3078 19.0061 29.3006C18.2713 29.2801 17.549 29.1655 16.8315 29.0073C16.116 28.8496 15.414 28.6491 14.7288 28.3909C13.6747 27.9934 12.6609 27.5246 11.8349 26.728C11.6357 26.5359 11.4889 26.3347 11.4958 26.0335C11.5032 25.711 11.4674 25.3876 11.4575 25.1977Z" fill="#1F1712"/>
<path d="M38.292 25.267C38.2779 25.5361 38.2506 25.8054 38.2543 26.0743C38.2572 26.2819 38.162 26.4267 38.0334 26.5689C37.5433 27.1099 36.9382 27.4907 36.2976 27.8227C35.3337 28.3221 34.3132 28.6713 33.2626 28.9277C32.4462 29.1269 31.6195 29.2774 30.7726 29.2789C30.547 29.2793 30.3309 29.236 30.1159 29.1841C29.8878 29.1291 29.8176 29.0048 29.8504 28.7931C29.9565 28.1087 30.3763 27.614 30.8462 27.1547C31.4407 26.5735 32.1543 26.1502 32.8417 25.6949C33.6914 25.1321 34.5568 24.5937 35.4699 24.1375C36.113 23.8163 36.7651 23.5088 37.4937 23.4446C38.0254 23.3978 37.9795 23.4049 38.1568 23.9452C38.2971 24.3723 38.2908 24.8211 38.292 25.267Z" fill="#1F1713"/>
<path d="M43.7034 5.27423C42.9859 5.29879 42.3225 5.51845 41.6879 5.83776C40.8362 6.26635 40.1206 6.87299 39.4871 7.57438C38.8834 8.24268 38.3684 8.97995 37.9037 9.75161C37.5962 10.2622 37.3074 10.7827 37.0525 11.3217C37.0273 11.3748 36.9815 11.4182 36.9453 11.466C36.7098 11.3576 36.5465 11.1545 36.3513 10.9959C35.882 10.6147 35.392 10.2625 34.9048 9.90631C34.7746 9.81096 34.7967 9.75602 34.8873 9.65557C35.4824 8.99609 36.0929 8.35095 36.7326 7.73488C37.8312 6.67689 38.9785 5.67444 40.2364 4.80874C41.0382 4.25684 41.895 3.79827 42.802 3.43876C43.0635 3.33509 43.0892 3.3377 43.2024 3.58533C43.4322 4.08741 43.6033 4.60793 43.6662 5.15994C43.6706 5.19894 43.6907 5.23613 43.7034 5.27423Z" fill="#F2991D"/>
<path d="M34.6643 22.1969C33.7816 22.1809 33.0431 22.1539 32.3238 21.9417C31.6542 21.7441 31.3674 21.3179 31.423 20.6109C31.4836 19.8411 31.8935 19.2639 32.4299 18.7603C32.7329 18.4758 33.0554 18.2073 33.4559 18.0628C34.144 17.8147 34.7992 17.9285 35.4125 18.2875C36.1799 18.7367 36.7101 19.3729 36.8365 20.2812C36.9086 20.7995 36.7912 21.2824 36.5061 21.7273C36.303 22.0444 35.9873 22.1207 35.6538 22.1423C35.2775 22.1665 34.9015 22.2139 34.6643 22.1969Z" fill="#FFFEFE"/>
<path d="M14.7553 22.1904C14.267 22.1957 13.8317 22.1574 13.3954 22.1222C13.009 22.0911 12.8134 21.8456 12.6257 21.5523C12.3468 21.1166 12.3742 20.6548 12.4311 20.1715C12.5605 19.0728 13.6338 18.1387 14.688 17.9605C15.299 17.8573 15.8592 18.012 16.354 18.3972C16.9229 18.84 17.448 19.3235 17.656 20.0403C17.7898 20.5013 17.7518 20.9767 17.5811 21.4286C17.4884 21.6743 17.2709 21.8119 17.0361 21.8967C16.6557 22.0339 16.2566 22.11 15.855 22.1404C15.4731 22.1692 15.09 22.2132 14.7553 22.1904Z" fill="#FFFEFE"/>
<path d="M42.0845 41.9432C42.0936 41.8286 42.1882 41.7834 42.2713 41.7067C42.2819 41.8021 42.1734 41.8479 42.2068 41.9318C42.2068 41.9319 42.2021 41.9436 42.2021 41.9436L42.1893 41.9444C42.1544 41.944 42.1195 41.9436 42.0845 41.9432Z" fill="#F6D9A7"/>
<path d="M42.0845 41.9433C42.1195 41.9437 42.1544 41.9441 42.1893 41.9445C42.1712 41.9882 42.1485 42.0273 42.0968 42.0376C42.0968 42.0377 42.0848 42.0234 42.0848 42.0234C42.0851 41.9962 42.0855 41.9691 42.0858 41.942L42.0845 41.9433Z" fill="#FFFEFE"/>
<path d="M30.9942 40.6062C30.8539 41.1878 30.7162 41.7534 30.5819 42.3198C30.555 42.4329 30.4796 42.4331 30.3866 42.4328C30.0604 42.4316 30.061 42.4347 29.9429 42.7432C29.7372 43.2801 29.5305 43.8168 29.3101 44.3906C29.1739 44.1342 28.9649 43.9506 28.9697 43.6515C28.9801 43.0043 28.9773 42.3568 28.9908 41.7095C28.9939 41.5625 28.9686 41.5296 28.8152 41.5564C27.4579 41.7934 26.0897 41.9104 24.7121 41.858C23.8581 41.8255 23.0049 41.7632 22.1644 41.5907C22.0663 41.5706 21.965 41.5665 21.8738 41.5561C21.8738 42.1928 21.8582 42.8262 21.8801 43.4584C21.8919 43.8004 21.8673 44.1132 21.607 44.3794C21.3823 44.0776 21.2419 43.7255 21.1204 43.367C21.0303 43.101 20.938 42.8328 20.9083 42.551C20.8866 42.3444 20.7444 42.3621 20.6191 42.4006C20.4287 42.459 20.3709 42.4014 20.3331 42.2104C20.2874 41.9791 20.2466 41.7473 20.2308 41.514C20.2193 41.3462 20.1668 41.2219 20.0363 41.1176C19.9315 41.0339 19.8407 40.9327 19.7433 40.8397C19.6859 40.7848 19.6985 40.7146 19.7087 40.6497C19.7199 40.5789 19.7837 40.6083 19.8237 40.6084C20.3766 40.61 20.9297 40.6153 21.4826 40.6176C21.5858 40.618 21.6706 40.634 21.6727 40.7625C21.6742 40.85 21.7343 40.8467 21.798 40.8501C22.593 40.8934 23.3887 40.8903 24.1844 40.8919C24.2692 40.8921 24.3195 40.8662 24.3608 40.792C24.4517 40.6286 24.5561 40.4725 24.6459 40.3083C24.7254 40.1634 24.7996 40.0276 25.0049 40.0781C25.0979 40.1008 25.1152 40.0385 25.1149 39.9588C25.1128 39.4465 25.1105 38.934 25.1156 38.4217C25.1168 38.3092 25.0446 38.2967 24.9695 38.2641C24.1961 37.929 23.4664 37.5237 22.8734 36.9105C22.3834 36.4039 22.0822 35.8204 22.126 35.0884C22.1473 34.7323 22.129 34.3737 22.1293 34.0163C22.1299 33.2558 22.6317 32.753 23.3919 32.7526C24.6396 32.752 25.8873 32.7518 27.1349 32.7526C27.8072 32.7531 28.488 33.4413 28.4652 34.1136C28.4465 34.6717 28.4994 35.2333 28.3966 35.7875C28.2471 36.5944 27.7989 37.2108 27.1575 37.6976C26.8304 37.9459 26.4763 38.1506 26.0842 38.2799C25.9968 38.3087 25.9743 38.3514 25.9749 38.4381C25.9787 38.9439 25.98 39.4498 25.9743 39.9554C25.9731 40.0651 26.0096 40.1025 26.1119 40.0852C26.2745 40.0575 26.3609 40.1308 26.4348 40.2765C26.5402 40.4844 26.6366 40.7481 26.8157 40.8526C26.988 40.9531 27.2607 40.8833 27.4892 40.8847C27.9343 40.8876 28.3796 40.881 28.8243 40.8934C28.9765 40.8976 29.0796 40.867 29.1373 40.7179C29.1612 40.6562 29.2047 40.605 29.2874 40.6053C29.8532 40.607 30.419 40.6062 30.9942 40.6062Z" fill="#1D1919"/>
<path d="M25.1469 42.3522C25.7738 42.3522 26.4008 42.3554 27.0277 42.3496C27.1579 42.3484 27.2204 42.3668 27.2157 42.5205C27.207 42.8074 26.9898 43.0862 26.6983 43.1555C26.6134 43.1756 26.5787 43.1118 26.5296 43.07C26.1732 42.7658 26.1733 42.7658 25.8729 43.1222C25.7822 43.2298 25.691 43.3368 25.6006 43.4446C25.3909 43.6945 25.1225 43.6779 24.9557 43.4032C24.8483 43.2262 24.7433 43.0476 24.6365 42.8701C24.5901 42.7929 24.5347 42.746 24.4313 42.7394C24.1165 42.719 24.1059 42.7088 24.0054 43.0066C23.9541 43.159 23.8849 43.1711 23.7568 43.1156C23.573 43.0359 23.3807 42.9752 23.2114 42.864C23.1481 42.8225 23.1047 42.7814 23.1014 42.6906C23.089 42.3446 23.084 42.345 23.4282 42.3452C24.001 42.3454 24.574 42.3452 25.1469 42.3452V42.3522Z" fill="#171413"/>
<path d="M27.2725 50.0549C27.4073 50.0384 27.4952 49.9688 27.6209 50.0105C27.5123 50.0649 27.4181 50.0997 27.2725 50.0549Z" fill="#F6D9A7"/>
<path d="M27.8764 49.9663C27.8169 49.9955 27.7626 50.0105 27.6917 49.9663H27.8764Z" fill="#F6D9A7"/>
<path d="M42.086 41.9419C42.0856 41.9691 42.0852 41.9962 42.0849 42.0233C42.058 42.0118 42.0091 42.0212 42.0212 41.9716C42.0247 41.9573 42.0634 41.9516 42.086 41.9419Z" fill="#F6D9A7"/>
<path d="M41.8013 42.2256C41.8002 42.1704 41.8258 42.142 41.8824 42.1447L41.8832 42.1453C41.8689 42.185 41.8419 42.212 41.8021 42.2264L41.8013 42.2256Z" fill="#F6D9A7"/>
<path d="M41.8022 42.2264C41.7899 42.2374 41.7776 42.2483 41.7653 42.2594C41.7607 42.2524 41.7561 42.2452 41.7515 42.2382C41.7681 42.234 41.7847 42.2298 41.8014 42.2256L41.8022 42.2264Z" fill="#F7DDB0"/>
<path d="M41.2093 42.8048C41.2088 42.8099 41.2102 42.8175 41.2074 42.8195C41.2029 42.8231 41.1943 42.8259 41.1898 42.8238C41.1709 42.8151 41.1719 42.8052 41.1921 42.7994C41.197 42.7981 41.2035 42.8028 41.2093 42.8048Z" fill="#F7DDB0"/>
<path d="M41.9197 42.1012C41.9253 42.0846 41.9309 42.068 41.9365 42.0514C41.9437 42.0567 41.9511 42.0619 41.9583 42.0672C41.9474 42.0805 41.9365 42.0938 41.9256 42.107L41.9197 42.1012Z" fill="#F6D9A7"/>
<path d="M41.8823 42.1446C41.8951 42.1297 41.9079 42.1148 41.9206 42.1C41.9205 42.0999 41.9266 42.1059 41.9267 42.1059C41.9121 42.119 41.8976 42.1321 41.883 42.1452L41.8823 42.1446Z" fill="#F6D9A7"/>
<path d="M41.6768 42.344C41.6833 42.3353 41.6898 42.3265 41.6964 42.3177C41.7219 42.3405 41.6962 42.343 41.6834 42.3506L41.6768 42.344Z" fill="#F7DDB0"/>
<path d="M41.6837 42.35C41.6756 42.3555 41.6675 42.3611 41.6594 42.3666C41.6654 42.3589 41.6713 42.3513 41.6772 42.3435C41.6771 42.3435 41.6837 42.35 41.6837 42.35Z" fill="#F7DDB0"/>
<path d="M41.5796 42.4387L41.5845 42.4516L41.5723 42.4504L41.5796 42.4387Z" fill="#F7DDB0"/>
<path d="M41.4705 42.5427C41.479 42.528 41.486 42.5071 41.5055 42.5321C41.5062 42.5331 41.4906 42.547 41.4828 42.5548L41.4705 42.5427Z" fill="#F7DDB0"/>
<path d="M41.4831 42.5543C41.4742 42.5593 41.4654 42.5643 41.4565 42.5693C41.4614 42.5603 41.4662 42.5514 41.4709 42.5424C41.4708 42.5423 41.4831 42.5543 41.4831 42.5543Z" fill="#F7DDB0"/>
<path d="M41.3775 42.6193L41.3733 42.6077L41.3843 42.609L41.3775 42.6193Z" fill="#F7DDB0"/>
<path d="M41.2554 42.7409L41.2512 42.729L41.2623 42.7303L41.2554 42.7409Z" fill="#F7DDB0"/>
</svg>
